Coordinates
version=1
nRows=4
nColumns=63
inDegrees=yes

Units are S.I. units (second, meters, Newtons, ...)
If the header above contains a line with 'inDegrees', this indicates whether rotational values are in degrees (yes) or radians (no).

endheader
time	pelvis_tilt	pelvis_list	pelvis_rotation	pelvis_tx	pelvis_ty	pelvis_tz	hip_flexion_r	hip_adduction_r	hip_rotation_r	knee_angle_r	knee_angle_r_beta	ankle_angle_r	subtalar_angle_r	mtp_angle_r	hip_flexion_l	hip_adduction_l	hip_rotation_l	knee_angle_l	knee_angle_l_beta	ankle_angle_l	subtalar_angle_l	mtp_angle_l	L5_S1_Flex_Ext	L5_S1_Lat_Bending	L5_S1_axial_rotation	L4_L5_Flex_Ext	L4_L5_Lat_Bending	L4_L5_axial_rotation	L3_L4_Flex_Ext	L3_L4_Lat_Bending	L3_L4_axial_rotation	L2_L3_Flex_Ext	L2_L3_Lat_Bending	L2_L3_axial_rotation	L1_L2_Flex_Ext	L1_L2_Lat_Bending	L1_L2_axial_rotation	L1_T12_Flex_Ext	L1_T12_Lat_Bending	L1_T12_axial_rotation	Abs_r3	Abs_r2	Abs_r1	Abs_t1	Abs_t2	neck_flexion	neck_bending	neck_rotation	arm_flex_r	arm_add_r	arm_rot_r	elbow_flex_r	pro_sup_r	wrist_flex_r	wrist_dev_r	arm_flex_l	arm_add_l	arm_rot_l	elbow_flex_l	pro_sup_l	wrist_flex_l	wrist_dev_l
      0.00000000	     -4.54601738	     -3.46276780	    102.23852736	      0.16575114	      1.01254511	      0.45107057	      3.08806229	     -9.15663307	    -13.43480800	     19.50588783	      0.34044197	     30.30248004	      2.92322098	      0.00000000	     -2.85036135	      7.75600377	      8.47436825	      3.20604449	      0.05595603	     21.40737805	     -4.37916586	      0.00000000	      0.02577667	     -0.28359521	     -1.29068806	      0.04786986	     -0.37718163	     -1.37135607	      0.04234849	     -0.68953340	     -1.37135607	      0.02946016	     -0.68953340	     -1.12935206	      0.02393622	     -0.57830735	     -1.04868405	      0.01472879	     -0.43928898	     -0.96801605	      0.18412018	     -3.20808575	     -7.17841980	      0.00000000	      0.00000000	     24.24180387	      8.89268849	      6.92529272	     18.95869604	      3.73605513	    163.35227716	      3.02247498	      3.92194964	     -3.96694581	    -19.30675340	      8.13785805	     -2.95698356	     59.61444340	     30.15573632	     65.78688931	      0.93501757	      2.49266832
      0.01694915	     -4.24189784	     -3.90458904	    102.21088026	      0.16752707	      1.01075241	      0.45422311	      4.12540437	     -8.96806753	    -13.54408904	     20.20296933	      0.35260833	     30.24197819	      3.21720536	      0.00000000	     -2.17655324	      7.46551233	      9.02739952	      2.94108607	      0.05133164	     21.47647581	     -6.04083717	      0.00000000	      0.02551903	     -0.25855064	     -1.41842034	      0.04739139	     -0.34387235	     -1.50707161	      0.04192521	     -0.62864002	     -1.50707161	      0.02916570	     -0.62864002	     -1.24111780	      0.02369697	     -0.52723646	     -1.15246652	      0.01458157	     -0.40049494	     -1.06381525	      0.18227988	     -2.92477652	     -7.88882839	      0.00000000	      0.00000000	     25.11696427	      7.98667668	      5.97160381	     20.39649448	      1.69844096	    143.05697402	      5.17884074	      2.48424790	     -0.64854584	    -19.43503600	      8.16821429	     -4.10290111	     60.46468464	     28.74092717	     68.65319580	     -0.82275976	      0.93207382
      0.03389831	     -3.83477122	     -4.36987157	    101.93728326	      0.16897432	      1.00892025	      0.45667785	      5.19781026	     -8.62428014	    -13.10177091	     20.79011152	      0.36285590	     30.06464347	      3.00702548	      0.00000000	     -1.49079155	      7.11524279	      9.32511469	      2.65373715	      0.04631645	     21.57192512	     -7.38063697	      0.00000000	      0.04397952	     -0.21866358	     -1.45495132	      0.08167436	     -0.29082257	     -1.54588578	      0.07225395	     -0.53165864	     -1.54588578	      0.05026419	     -0.53165864	     -1.27308241	      0.04083938	     -0.44589878	     -1.18214795	      0.02512990	     -0.33870989	     -1.09121349	      0.31414129	     -2.47356619	     -8.09200278	      0.00000000	      0.00000000	     25.90220566	      7.33786475	      5.31661067	     21.20928761	     -0.00724851	    136.09093944	      5.40766504	      2.51467159	     -2.10406177	    -19.23563267	      8.23497217	     -5.04152356	     60.08894758	     27.62468556	     71.22021389	     -2.75020814	      0.63363950
      0.05084746	     -3.43621083	     -4.87928325	    101.67735196	      0.16993343	      1.00715363	      0.45873084	      6.20684586	     -8.33741871	    -12.85248226	     21.22822272	      0.37050238	     29.91035711	      3.00740855	      0.00000000	     -0.70474785	      6.79982159	      9.19499354	      2.54202124	      0.04436664	     21.81486170	     -7.84508841	      0.00000000	      0.07746476	     -0.17650276	     -1.43161719	      0.14385981	     -0.23474867	     -1.52109327	      0.12726686	     -0.42914880	     -1.52109327	      0.08853448	     -0.42914880	     -1.25266504	      0.07193378	     -0.35992442	     -1.16318897	      0.04426337	     -0.27340277	     -1.07371290	      0.55332306	     -1.99663449	     -7.96222535	      0.00000000	      0.00000000	     26.60125995	      6.72990216	      4.75735333	     21.50892868	     -1.63530780	    134.74544950	      4.50855853	      2.16909996	     -3.27555520	    -18.47627054	      8.76977670	     -5.94267860	     60.66646107	     26.51529044	     73.46396153	     -4.89637706	      0.58990908
